<mxfile host="app.diagrams.net" agent="Mozilla/5.0 (Windows NT 10.0; Win64; x64) AppleWebKit/537.36 (KHTML, like Gecko) Chrome/130.0.0.0 Safari/537.36 Edg/130.0.0.0" version="24.8.1">
  <diagram name="Página-1" id="6wMbsXm-Ev1AdW_tWfCb">
    <mxGraphModel dx="786" dy="511" grid="1" gridSize="10" guides="1" tooltips="1" connect="1" arrows="1" fold="1" page="1" pageScale="1" pageWidth="827" pageHeight="1169" math="0" shadow="0">
      <root>
        <mxCell id="0" />
        <mxCell id="1" parent="0" />
        <mxCell id="vpQXra5DkgQMdeffvSz--4" value="Base de datos" style="shape=umlLifeline;perimeter=lifelinePerimeter;whiteSpace=wrap;html=1;container=1;collapsible=0;recursiveResize=0;outlineConnect=0;rounded=1;shadow=0;comic=0;labelBackgroundColor=none;strokeWidth=1;fontFamily=Verdana;fontSize=12;align=center;" vertex="1" parent="1">
          <mxGeometry x="290" y="10" width="100" height="1160" as="geometry" />
        </mxCell>
        <mxCell id="vpQXra5DkgQMdeffvSz--5" value="" style="html=1;points=[[0,0,0,0,5],[0,1,0,0,-5],[1,0,0,0,5],[1,1,0,0,-5]];perimeter=orthogonalPerimeter;outlineConnect=0;targetShapes=umlLifeline;portConstraint=eastwest;newEdgeStyle={&quot;curved&quot;:0,&quot;rounded&quot;:0};" vertex="1" parent="vpQXra5DkgQMdeffvSz--4">
          <mxGeometry x="45" y="570" width="10" height="120" as="geometry" />
        </mxCell>
        <mxCell id="vpQXra5DkgQMdeffvSz--35" value="" style="html=1;points=[[0,0,0,0,5],[0,1,0,0,-5],[1,0,0,0,5],[1,1,0,0,-5]];perimeter=orthogonalPerimeter;outlineConnect=0;targetShapes=umlLifeline;portConstraint=eastwest;newEdgeStyle={&quot;curved&quot;:0,&quot;rounded&quot;:0};" vertex="1" parent="vpQXra5DkgQMdeffvSz--4">
          <mxGeometry x="45" y="830" width="10" height="80" as="geometry" />
        </mxCell>
        <mxCell id="vpQXra5DkgQMdeffvSz--6" value="Usuario" style="shape=umlLifeline;perimeter=lifelinePerimeter;whiteSpace=wrap;html=1;container=1;collapsible=0;recursiveResize=0;outlineConnect=0;rounded=1;shadow=0;comic=0;labelBackgroundColor=none;strokeWidth=1;fontFamily=Verdana;fontSize=12;align=center;" vertex="1" parent="1">
          <mxGeometry x="50" y="40" width="100" height="1130" as="geometry" />
        </mxCell>
        <mxCell id="vpQXra5DkgQMdeffvSz--7" value="" style="html=1;points=[[0,0,0,0,5],[0,1,0,0,-5],[1,0,0,0,5],[1,1,0,0,-5]];perimeter=orthogonalPerimeter;outlineConnect=0;targetShapes=umlLifeline;portConstraint=eastwest;newEdgeStyle={&quot;curved&quot;:0,&quot;rounded&quot;:0};" vertex="1" parent="vpQXra5DkgQMdeffvSz--6">
          <mxGeometry x="45" y="87" width="10" height="143" as="geometry" />
        </mxCell>
        <mxCell id="vpQXra5DkgQMdeffvSz--8" value="" style="endArrow=classic;html=1;rounded=0;dashed=1;" edge="1" parent="vpQXra5DkgQMdeffvSz--6" source="vpQXra5DkgQMdeffvSz--7" target="vpQXra5DkgQMdeffvSz--6">
          <mxGeometry width="50" height="50" relative="1" as="geometry">
            <mxPoint x="480.5" y="200" as="sourcePoint" />
            <mxPoint x="170" y="200" as="targetPoint" />
          </mxGeometry>
        </mxCell>
        <mxCell id="vpQXra5DkgQMdeffvSz--45" value="" style="html=1;points=[[0,0,0,0,5],[0,1,0,0,-5],[1,0,0,0,5],[1,1,0,0,-5]];perimeter=orthogonalPerimeter;outlineConnect=0;targetShapes=umlLifeline;portConstraint=eastwest;newEdgeStyle={&quot;curved&quot;:0,&quot;rounded&quot;:0};" vertex="1" parent="vpQXra5DkgQMdeffvSz--6">
          <mxGeometry x="45" y="1020" width="10" height="80" as="geometry" />
        </mxCell>
        <mxCell id="vpQXra5DkgQMdeffvSz--10" value="Controlador de Actuaciones" style="shape=umlLifeline;perimeter=lifelinePerimeter;whiteSpace=wrap;html=1;container=1;collapsible=0;recursiveResize=0;outlineConnect=0;rounded=1;shadow=0;comic=0;labelBackgroundColor=none;strokeWidth=1;fontFamily=Verdana;fontSize=12;align=center;" vertex="1" parent="1">
          <mxGeometry x="660" y="10" width="100" height="1160" as="geometry" />
        </mxCell>
        <mxCell id="vpQXra5DkgQMdeffvSz--11" value="" style="html=1;points=[[0,0,0,0,5],[0,1,0,0,-5],[1,0,0,0,5],[1,1,0,0,-5]];perimeter=orthogonalPerimeter;outlineConnect=0;targetShapes=umlLifeline;portConstraint=eastwest;newEdgeStyle={&quot;curved&quot;:0,&quot;rounded&quot;:0};" vertex="1" parent="vpQXra5DkgQMdeffvSz--10">
          <mxGeometry x="45" y="570" width="10" height="130" as="geometry" />
        </mxCell>
        <mxCell id="vpQXra5DkgQMdeffvSz--12" style="edgeStyle=orthogonalEdgeStyle;rounded=0;orthogonalLoop=1;jettySize=auto;html=1;curved=0;dashed=1;" edge="1" parent="vpQXra5DkgQMdeffvSz--10">
          <mxGeometry relative="1" as="geometry">
            <mxPoint x="40" y="617" as="sourcePoint" />
            <mxPoint x="-320" y="617" as="targetPoint" />
          </mxGeometry>
        </mxCell>
        <mxCell id="vpQXra5DkgQMdeffvSz--36" value="" style="html=1;points=[[0,0,0,0,5],[0,1,0,0,-5],[1,0,0,0,5],[1,1,0,0,-5]];perimeter=orthogonalPerimeter;outlineConnect=0;targetShapes=umlLifeline;portConstraint=eastwest;newEdgeStyle={&quot;curved&quot;:0,&quot;rounded&quot;:0};" vertex="1" parent="vpQXra5DkgQMdeffvSz--10">
          <mxGeometry x="45" y="830" width="10" height="80" as="geometry" />
        </mxCell>
        <mxCell id="vpQXra5DkgQMdeffvSz--44" value="" style="html=1;points=[[0,0,0,0,5],[0,1,0,0,-5],[1,0,0,0,5],[1,1,0,0,-5]];perimeter=orthogonalPerimeter;outlineConnect=0;targetShapes=umlLifeline;portConstraint=eastwest;newEdgeStyle={&quot;curved&quot;:0,&quot;rounded&quot;:0};" vertex="1" parent="vpQXra5DkgQMdeffvSz--10">
          <mxGeometry x="45" y="1050" width="10" height="80" as="geometry" />
        </mxCell>
        <mxCell id="vpQXra5DkgQMdeffvSz--14" value="Middleware &quot;Auth&quot;" style="shape=umlLifeline;perimeter=lifelinePerimeter;whiteSpace=wrap;html=1;container=1;collapsible=0;recursiveResize=0;outlineConnect=0;rounded=1;shadow=0;comic=0;labelBackgroundColor=none;strokeWidth=1;fontFamily=Verdana;fontSize=12;align=center;" vertex="1" parent="1">
          <mxGeometry x="480" y="10" width="100" height="1160" as="geometry" />
        </mxCell>
        <mxCell id="vpQXra5DkgQMdeffvSz--15" value="" style="html=1;points=[[0,0,0,0,5],[0,1,0,0,-5],[1,0,0,0,5],[1,1,0,0,-5]];perimeter=orthogonalPerimeter;outlineConnect=0;targetShapes=umlLifeline;portConstraint=eastwest;newEdgeStyle={&quot;curved&quot;:0,&quot;rounded&quot;:0};" vertex="1" parent="vpQXra5DkgQMdeffvSz--14">
          <mxGeometry x="45" y="90" width="10" height="140" as="geometry" />
        </mxCell>
        <mxCell id="vpQXra5DkgQMdeffvSz--16" value="" style="endArrow=open;endFill=1;endSize=12;html=1;rounded=0;dashed=1;" edge="1" parent="vpQXra5DkgQMdeffvSz--14" target="vpQXra5DkgQMdeffvSz--7">
          <mxGeometry width="160" relative="1" as="geometry">
            <mxPoint x="50" y="190" as="sourcePoint" />
            <mxPoint x="210" y="190" as="targetPoint" />
          </mxGeometry>
        </mxCell>
        <mxCell id="vpQXra5DkgQMdeffvSz--17" value="" style="endArrow=classic;html=1;rounded=0;dashed=1;" edge="1" parent="1">
          <mxGeometry width="50" height="50" relative="1" as="geometry">
            <mxPoint x="100" y="130" as="sourcePoint" />
            <mxPoint x="529.5" y="130" as="targetPoint" />
          </mxGeometry>
        </mxCell>
        <mxCell id="vpQXra5DkgQMdeffvSz--18" value="Solicita ingresar&amp;nbsp;&lt;span style=&quot;background-color: initial;&quot;&gt;al modulo&amp;nbsp;&lt;/span&gt;&lt;div&gt;&lt;span style=&quot;background-color: initial;&quot;&gt;de actuaciones fiscales&lt;/span&gt;&lt;/div&gt;" style="text;html=1;align=center;verticalAlign=middle;resizable=0;points=[];autosize=1;strokeColor=none;fillColor=none;" vertex="1" parent="1">
          <mxGeometry x="130" y="80" width="170" height="40" as="geometry" />
        </mxCell>
        <mxCell id="vpQXra5DkgQMdeffvSz--19" value="Verifica que el usuario&amp;nbsp;&lt;div&gt;esté logueado y lo deja hacer&lt;/div&gt;&lt;div&gt;peticiones al controlador&lt;/div&gt;" style="text;html=1;align=center;verticalAlign=middle;resizable=0;points=[];autosize=1;strokeColor=none;fillColor=none;" vertex="1" parent="1">
          <mxGeometry x="340" y="140" width="180" height="60" as="geometry" />
        </mxCell>
        <mxCell id="vpQXra5DkgQMdeffvSz--20" value="alt" style="shape=umlFrame;whiteSpace=wrap;html=1;pointerEvents=0;" vertex="1" parent="1">
          <mxGeometry x="40" y="290" width="580" height="150" as="geometry" />
        </mxCell>
        <mxCell id="vpQXra5DkgQMdeffvSz--21" style="edgeStyle=orthogonalEdgeStyle;rounded=0;orthogonalLoop=1;jettySize=auto;html=1;curved=0;dashed=1;" edge="1" parent="1" source="vpQXra5DkgQMdeffvSz--22" target="vpQXra5DkgQMdeffvSz--23">
          <mxGeometry relative="1" as="geometry" />
        </mxCell>
        <mxCell id="vpQXra5DkgQMdeffvSz--22" value="" style="html=1;points=[[0,0,0,0,5],[0,1,0,0,-5],[1,0,0,0,5],[1,1,0,0,-5]];perimeter=orthogonalPerimeter;outlineConnect=0;targetShapes=umlLifeline;portConstraint=eastwest;newEdgeStyle={&quot;curved&quot;:0,&quot;rounded&quot;:0};" vertex="1" parent="1">
          <mxGeometry x="525" y="330" width="10" height="90" as="geometry" />
        </mxCell>
        <mxCell id="vpQXra5DkgQMdeffvSz--23" value="" style="html=1;points=[[0,0,0,0,5],[0,1,0,0,-5],[1,0,0,0,5],[1,1,0,0,-5]];perimeter=orthogonalPerimeter;outlineConnect=0;targetShapes=umlLifeline;portConstraint=eastwest;newEdgeStyle={&quot;curved&quot;:0,&quot;rounded&quot;:0};" vertex="1" parent="1">
          <mxGeometry x="95" y="335" width="10" height="80" as="geometry" />
        </mxCell>
        <mxCell id="vpQXra5DkgQMdeffvSz--24" value="Si el usuario&lt;div&gt;no está logueado&lt;/div&gt;&lt;div&gt;redirige a página de login&lt;/div&gt;" style="text;html=1;align=center;verticalAlign=middle;resizable=0;points=[];autosize=1;strokeColor=none;fillColor=none;" vertex="1" parent="1">
          <mxGeometry x="350" y="310" width="160" height="60" as="geometry" />
        </mxCell>
        <mxCell id="vpQXra5DkgQMdeffvSz--25" style="edgeStyle=orthogonalEdgeStyle;rounded=0;orthogonalLoop=1;jettySize=auto;html=1;curved=0;dashed=1;" edge="1" parent="1">
          <mxGeometry relative="1" as="geometry">
            <mxPoint x="346" y="680" as="sourcePoint" />
            <mxPoint x="706" y="680" as="targetPoint" />
          </mxGeometry>
        </mxCell>
        <mxCell id="vpQXra5DkgQMdeffvSz--26" value="Solicita registros&lt;div&gt;de todas las actuaciones&amp;nbsp;&lt;/div&gt;&lt;div&gt;creadas&lt;/div&gt;" style="text;html=1;align=center;verticalAlign=middle;resizable=0;points=[];autosize=1;strokeColor=none;fillColor=none;" vertex="1" parent="1">
          <mxGeometry x="530" y="560" width="160" height="60" as="geometry" />
        </mxCell>
        <mxCell id="vpQXra5DkgQMdeffvSz--27" value="Envía todos&lt;div&gt;las actuaciones creadas&lt;/div&gt;" style="text;html=1;align=center;verticalAlign=middle;resizable=0;points=[];autosize=1;strokeColor=none;fillColor=none;" vertex="1" parent="1">
          <mxGeometry x="345" y="643" width="150" height="40" as="geometry" />
        </mxCell>
        <mxCell id="vpQXra5DkgQMdeffvSz--39" style="edgeStyle=orthogonalEdgeStyle;rounded=0;orthogonalLoop=1;jettySize=auto;html=1;curved=0;dashed=1;" edge="1" parent="1" source="vpQXra5DkgQMdeffvSz--35" target="vpQXra5DkgQMdeffvSz--36">
          <mxGeometry relative="1" as="geometry">
            <Array as="points">
              <mxPoint x="650" y="910" />
              <mxPoint x="650" y="910" />
            </Array>
          </mxGeometry>
        </mxCell>
        <mxCell id="vpQXra5DkgQMdeffvSz--40" style="edgeStyle=orthogonalEdgeStyle;rounded=0;orthogonalLoop=1;jettySize=auto;html=1;curved=0;dashed=1;" edge="1" parent="1">
          <mxGeometry relative="1" as="geometry">
            <mxPoint x="705" y="870" as="sourcePoint" />
            <mxPoint x="345" y="870" as="targetPoint" />
          </mxGeometry>
        </mxCell>
        <mxCell id="vpQXra5DkgQMdeffvSz--41" value="Si hay actuaciones&lt;div&gt;de seguimiento también las solicita&amp;nbsp;&lt;/div&gt;" style="text;html=1;align=center;verticalAlign=middle;resizable=0;points=[];autosize=1;strokeColor=none;fillColor=none;" vertex="1" parent="1">
          <mxGeometry x="485" y="813" width="210" height="40" as="geometry" />
        </mxCell>
        <mxCell id="vpQXra5DkgQMdeffvSz--42" value="Envía actuaciones de seguimiento" style="text;html=1;align=center;verticalAlign=middle;resizable=0;points=[];autosize=1;strokeColor=none;fillColor=none;" vertex="1" parent="1">
          <mxGeometry x="480" y="880" width="210" height="30" as="geometry" />
        </mxCell>
        <mxCell id="vpQXra5DkgQMdeffvSz--43" value="alt" style="shape=umlFrame;whiteSpace=wrap;html=1;pointerEvents=0;" vertex="1" parent="1">
          <mxGeometry x="270" y="795" width="490" height="200" as="geometry" />
        </mxCell>
        <mxCell id="vpQXra5DkgQMdeffvSz--47" value="Muestra la interfaz del&lt;div&gt;modulo con los datos&amp;nbsp;&lt;/div&gt;&lt;div&gt;de actuaciones&lt;/div&gt;" style="text;html=1;align=center;verticalAlign=middle;resizable=0;points=[];autosize=1;strokeColor=none;fillColor=none;" vertex="1" parent="1">
          <mxGeometry x="535" y="1035" width="140" height="60" as="geometry" />
        </mxCell>
        <mxCell id="vpQXra5DkgQMdeffvSz--48" style="edgeStyle=orthogonalEdgeStyle;rounded=0;orthogonalLoop=1;jettySize=auto;html=1;curved=0;dashed=1;" edge="1" parent="1" source="vpQXra5DkgQMdeffvSz--44" target="vpQXra5DkgQMdeffvSz--45">
          <mxGeometry relative="1" as="geometry" />
        </mxCell>
      </root>
    </mxGraphModel>
  </diagram>
</mxfile>
